<svg width="348" height="79" viewBox="0 0 348 79" fill="none" xmlns="http://www.w3.org/2000/svg">
<g filter="url(#filter0_d_44_531)">
<mask id="path-1-inside-1_44_531" fill="white">
<path fill-rule="evenodd" clip-rule="evenodd" d="M344 0H4V21C12.2843 21 19 27.7157 19 36C19 44.2843 12.2843 51 4 51V61C4 66.5229 8.47716 71 14 71H344V0Z"/>
</mask>
<path fill-rule="evenodd" clip-rule="evenodd" d="M344 0H4V21C12.2843 21 19 27.7157 19 36C19 44.2843 12.2843 51 4 51V61C4 66.5229 8.47716 71 14 71H344V0Z" fill="#F5FFFA"/>
<path d="M4 0V-1H3V0H4ZM344 0H345V-1H344V0ZM4 21H3V22H4V21ZM4 51V50H3V51H4ZM344 71V72H345V71H344ZM4 1H344V-1H4V1ZM5 21V0H3V21H5ZM4 22C11.732 22 18 28.268 18 36H20C20 27.1634 12.8366 20 4 20V22ZM18 36C18 43.732 11.732 50 4 50V52C12.8366 52 20 44.8366 20 36H18ZM5 61V51H3V61H5ZM14 70C9.02945 70 5 65.9706 5 61H3C3 67.0751 7.92488 72 14 72V70ZM344 70H14V72H344V70ZM343 0V71H345V0H343Z" fill="#616D67" fill-opacity="0.7" mask="url(#path-1-inside-1_44_531)"/>
</g>
<defs>
<filter id="filter0_d_44_531" x="0" y="0" width="348" height="79" filterUnits="userSpaceOnUse" color-interpolation-filters="sRGB">
<feFlood flood-opacity="0" result="BackgroundImageFix"/>
<feColorMatrix in="SourceAlpha" type="matrix" values="0 0 0 0 0 0 0 0 0 0 0 0 0 0 0 0 0 0 127 0" result="hardAlpha"/>
<feOffset dy="4"/>
<feGaussianBlur stdDeviation="2"/>
<feComposite in2="hardAlpha" operator="out"/>
<feColorMatrix type="matrix" values="0 0 0 0 0 0 0 0 0 0 0 0 0 0 0 0 0 0 0.25 0"/>
<feBlend mode="normal" in2="BackgroundImageFix" result="effect1_dropShadow_44_531"/>
<feBlend mode="normal" in="SourceGraphic" in2="effect1_dropShadow_44_531" result="shape"/>
</filter>
</defs>
</svg>
