<svg width="112" height="30" viewBox="0 0 112 30" fill="none" xmlns="http://www.w3.org/2000/svg">
<g clip-path="url(#clip0_51_410)">
<path fill-rule="evenodd" clip-rule="evenodd" d="M13.1749 27.5113C14.1535 27.0574 14.953 26.4961 15.5736 25.8273C15.8958 25.4884 16.1812 25.1333 16.4297 24.7619C19.0143 24.9538 21.8852 25.0233 24.9756 24.978L25.6668 27.3679C25.7145 27.559 25.7742 27.6665 25.8458 27.6904C25.9174 27.7382 26.0486 27.7621 26.2396 27.7621H29.6407C29.8555 27.7621 29.9868 27.7382 30.0345 27.6904C30.1061 27.6665 30.1658 27.559 30.2136 27.3679L30.9744 24.7626C34.2012 24.5839 37.5948 24.3023 41.0941 23.9248L42.0995 27.3679C42.1472 27.559 42.2069 27.6665 42.2787 27.6904C42.3502 27.7382 42.4816 27.7621 42.6723 27.7621H46.0735C46.2646 27.7621 46.3957 27.7382 46.4675 27.6904C46.539 27.6665 46.5986 27.559 46.6464 27.3679L47.8836 23.0901C50.3377 22.7525 52.8232 22.3726 55.3208 21.9526V27.2963C55.3208 27.2989 55.3208 27.3015 55.3211 27.304C37.55 30.3748 20.3193 30.6507 9.93542 28.3855C10.0018 28.3813 10.0673 28.3766 10.1318 28.3712C11.2058 28.2756 12.2202 27.989 13.1749 27.5113ZM2.6206 25.6754C4.33282 26.8019 6.82745 27.7075 9.93542 28.3855C9.41284 28.4183 8.83387 28.4136 8.1985 28.3712C7.50634 28.3234 6.82614 28.2398 6.15783 28.1204C5.5134 28.0248 4.91673 27.9054 4.36777 27.7621C3.84269 27.6427 3.4608 27.5232 3.22212 27.4038C2.86411 27.2366 2.6493 27.1052 2.5777 27.0096C2.50609 26.938 2.49416 26.7708 2.5419 26.508L2.6206 25.6754ZM11.2407 24.1407C11.4814 24.0434 11.6965 23.9368 11.886 23.8208C12.3157 23.5342 12.6498 23.2117 12.8885 22.8534C13.151 22.4712 13.33 22.0652 13.4255 21.6352C13.521 21.1814 13.5687 20.7156 13.5687 20.2379C13.5687 19.784 13.2704 19.163 12.6737 18.3748C12.1008 17.5865 11.2655 16.8699 10.1676 16.225C8.831 15.4367 7.67342 14.7082 6.69487 14.0394C5.71628 13.3467 4.90478 12.6659 4.26035 11.9971C3.6398 11.3283 3.17439 10.6356 2.86411 9.91901C2.55383 9.20241 2.39869 8.41417 2.39869 7.55425C2.39869 6.57494 2.60156 5.64335 3.00731 4.75957C3.43692 3.85189 4.00976 3.06364 4.72577 2.39482C5.46567 1.72601 6.33683 1.20051 7.33926 0.81833C8.36558 0.412262 9.48735 0.209229 10.7046 0.209229C11.9457 0.209229 12.9601 0.292831 13.7477 0.460035C14.5592 0.603352 15.2514 0.782499 15.8242 0.997477C16.0867 1.09302 16.2419 1.20051 16.2896 1.31994C16.3612 1.41549 16.3731 1.54686 16.3254 1.71406L15.86 4.00717C15.8123 4.26991 15.7287 4.44906 15.6094 4.54459C15.5139 4.64013 15.3349 4.64013 15.0724 4.54459C14.7144 4.42515 14.3205 4.31768 13.8909 4.22211C13.4613 4.1027 13.0198 4.00717 12.5663 3.9355C12.1128 3.86383 11.6712 3.81606 11.2416 3.79219C10.8359 3.76829 10.4659 3.78022 10.1318 3.82799C8.7952 4.04297 7.85242 4.48489 7.30349 5.15369C6.7784 5.79863 6.51583 6.6227 6.51583 7.62592C6.51583 8.22309 6.82614 8.89189 7.44668 9.63236C8.06723 10.349 8.9742 11.0655 10.1676 11.7821C11.6712 12.6898 12.9004 13.5019 13.8551 14.2185C14.8337 14.9351 15.5974 15.6278 16.1464 16.2966C16.7192 16.9416 17.113 17.5985 17.3278 18.2673C17.5665 18.9361 17.6859 19.6646 17.6859 20.4529C17.6859 22.0739 17.2671 23.5102 16.4297 24.7619C14.5379 24.6214 12.7996 24.4153 11.2407 24.1407ZM11.2407 24.1407C10.9359 24.264 10.5902 24.3723 10.2034 24.4657C9.67828 24.5852 9.08162 24.633 8.41331 24.6091C7.76888 24.5852 7.12445 24.5255 6.48006 24.4299C5.83563 24.3105 5.25086 24.1791 4.72577 24.0358C4.20069 23.8686 3.79495 23.7253 3.50853 23.6059C3.24599 23.4864 3.06698 23.4506 2.97151 23.4984C2.87604 23.5461 2.81637 23.6656 2.79251 23.8566L2.6206 25.6754C-0.923569 23.3436 -1.11526 20.0656 3.54513 15.9017C0.799366 20.2432 4.17668 22.8962 11.2407 24.1407ZM59.5096 26.5297V27.2963C59.5096 27.6068 59.3544 27.7621 59.0441 27.7621H55.7862C55.4785 27.7621 55.3234 27.6094 55.3211 27.304C56.7148 27.0632 58.1122 26.8051 59.5096 26.5297ZM62.7025 25.8702C61.6392 26.1001 60.5742 26.3199 59.5096 26.5297V21.2125C60.5742 21.0154 61.6389 20.8112 62.7025 20.6001V25.8702ZM66.8199 24.9275V27.1888C66.8199 27.4277 66.784 27.5829 66.7125 27.6546C66.641 27.7263 66.4858 27.7621 66.247 27.7621H63.2754C63.0847 27.7621 62.9414 27.7263 62.8458 27.6546C62.7503 27.5829 62.7025 27.4277 62.7025 27.1888V25.8702C64.0782 25.5729 65.4515 25.2587 66.8199 24.9275ZM66.8199 19.7475C65.4515 20.043 64.0782 20.3273 62.7025 20.6001V1.35577C62.7025 1.06913 62.7503 0.889988 62.8458 0.81833C62.9414 0.722785 63.1202 0.675013 63.3828 0.675013H66.6766C66.8676 0.675013 67.0109 0.710841 67.1061 0.782502C67.2016 0.830271 67.3212 0.985533 67.4642 1.24828L76.8402 17.3555C75.5463 17.6957 74.2399 18.0262 72.9239 18.3467L66.8199 7.8409V19.7475ZM75.3958 22.6007C72.577 23.4528 69.7095 24.2281 66.8199 24.9275V19.7475C68.8695 19.3051 70.9075 18.8377 72.9239 18.3467L75.3958 22.6007ZM82.7871 20.141V27.0813C82.7871 27.3679 82.7393 27.5471 82.6441 27.6187C82.5723 27.7143 82.4053 27.7621 82.1428 27.7621H78.849C78.6583 27.7621 78.515 27.7263 78.4194 27.6546C78.3239 27.5829 78.2047 27.4277 78.0614 27.1888L75.3958 22.6007C77.9049 21.842 80.3752 21.0224 82.7871 20.141ZM82.7871 15.696V20.141C84.1986 19.6252 85.5904 19.0883 86.9581 18.53C87.1054 19.1098 87.2849 19.6672 87.4974 20.2021C88.1895 21.9457 89.1441 23.4148 90.3616 24.6091C91.5788 25.8034 93.0226 26.7111 94.6934 27.3321C96.3879 27.9532 98.226 28.2637 100.207 28.2637C100.875 28.2637 101.579 28.2278 102.319 28.1562C103.083 28.1084 103.823 28.0248 104.539 27.9054C105.279 27.786 105.959 27.6427 106.58 27.4754C107.2 27.3321 107.725 27.153 108.155 26.938C108.346 26.8186 108.513 26.6633 108.656 26.4722C108.799 26.2811 108.871 26.0064 108.871 25.6481V13.8244C108.871 13.4661 108.823 13.2273 108.728 13.1078C108.632 12.9884 108.405 12.9287 108.047 12.9287H98.8822C98.7629 12.9287 98.6433 12.9764 98.5241 13.072C98.4286 13.1676 98.3808 13.287 98.3808 13.4303V16.2966C98.3808 16.4161 98.4167 16.5236 98.4885 16.6191C98.5837 16.6908 98.7033 16.7266 98.8463 16.7266H104.754V23.9283C104.372 24.1194 103.787 24.2627 102.999 24.3583C102.212 24.4538 101.281 24.5016 100.207 24.5016C98.7985 24.5016 97.5098 24.2866 96.3404 23.8566C95.1707 23.4028 94.1564 22.746 93.2973 21.886C92.4619 21.0022 91.8054 19.9274 91.3281 18.6614C91.1278 18.092 90.972 17.4877 90.86 16.8486C99.426 12.9512 106.827 8.14746 112 2.39456C107.152 6.3771 99.6059 10.0124 90.6894 13.1478C90.7737 12.05 90.9865 11.0334 91.3281 10.0982C91.8054 8.85606 92.4619 7.79313 93.2973 6.90932C94.1324 6.00164 95.1351 5.30897 96.3045 4.83124C97.4739 4.32962 98.7748 4.0788 100.207 4.0788C101.352 4.0788 102.427 4.16241 103.429 4.32962C104.431 4.47292 105.493 4.72374 106.615 5.08202C106.878 5.17756 107.057 5.18953 107.152 5.11786C107.248 5.04619 107.308 4.92678 107.331 4.75957L107.761 1.71406C107.785 1.61852 107.773 1.53492 107.725 1.46326C107.677 1.36771 107.522 1.28411 107.26 1.21245C106.257 0.901931 105.195 0.67501 104.073 0.531692C102.952 0.36449 101.675 0.280888 100.243 0.280888C98.1183 0.280888 96.209 0.62724 94.5145 1.31994C92.8197 2.01264 91.3759 2.98004 90.1824 4.22211C88.9889 5.46421 88.0702 6.94515 87.4259 8.66498C86.7812 10.3609 86.4591 12.224 86.4591 14.2544C86.4591 14.3586 86.46 14.4622 86.4614 14.5653C85.2554 14.9511 84.0296 15.3281 82.7871 15.696ZM82.7871 15.696V1.24828C82.7871 1.00942 82.7515 0.854159 82.6797 0.782502C82.632 0.710841 82.489 0.675013 82.2502 0.675013H79.2789C79.04 0.675013 78.8849 0.710841 78.8134 0.782502C78.7416 0.854159 78.706 1.00942 78.706 1.24828V16.8559C78.0871 17.0247 77.4651 17.1912 76.8402 17.3555L78.706 20.5603V16.8559C80.0833 16.4802 81.4451 16.0934 82.7871 15.696ZM86.4614 14.5653C86.4824 15.9867 86.6478 17.3082 86.9581 18.53C88.2824 17.9895 89.5842 17.4291 90.86 16.8486C90.7187 16.0397 90.6479 15.175 90.6479 14.2544C90.6479 13.8768 90.6617 13.5079 90.6894 13.1478C89.3111 13.6325 87.9002 14.1051 86.4614 14.5653ZM59.5096 21.2125C58.1119 21.4714 56.7145 21.7182 55.3208 21.9526V1.21245C55.3208 0.901931 55.4759 0.74667 55.7862 0.74667H59.0441C59.3544 0.74667 59.5096 0.901931 59.5096 1.21245V21.2125ZM47.8836 23.0901L54.2004 1.24828C54.2482 1.08108 54.2482 0.961648 54.2004 0.889988C54.1527 0.794443 53.9738 0.74667 53.6635 0.74667H50.6919C50.5248 0.74667 50.4056 0.770555 50.3338 0.81833C50.2623 0.842215 50.2027 0.93776 50.1549 1.10497L44.212 21.2769L38.412 1.10497C38.3643 0.93776 38.2928 0.842215 38.1973 0.81833C38.1258 0.770555 38.0062 0.74667 37.8392 0.74667H34.4739C34.3069 0.74667 34.1755 0.770555 34.08 0.81833C34.0085 0.842215 33.9488 0.93776 33.9011 1.10497L28.1013 21.2769L22.1582 1.10497C22.1105 0.93776 22.0508 0.842215 21.9792 0.81833C21.9076 0.770555 21.7883 0.74667 21.6212 0.74667H18.6497C18.3394 0.74667 18.1604 0.794443 18.1127 0.889988C18.0649 0.961648 18.0649 1.08108 18.1127 1.24828L24.9756 24.978C26.8958 24.9499 28.9007 24.8775 30.9744 24.7626L36.1566 7.01683L41.0941 23.9248C43.3196 23.6848 45.588 23.4059 47.8836 23.0901Z" fill="#1D221F"/>
</g>
<defs>
<clipPath id="clip0_51_410">
<rect width="112" height="30" fill="white"/>
</clipPath>
</defs>
</svg>
