<svg width="30" height="30" viewBox="0 0 30 30" fill="none" xmlns="http://www.w3.org/2000/svg">
<path d="M5.50006 20.9625L5.49772 21.1176L5.58364 21.2469C7.60736 24.2903 11.0756 26.3 15 26.3C18.9244 26.3 22.3926 24.2903 24.4164 21.2469L24.5023 21.1176L24.4999 20.9625C24.486 20.0362 24.0101 19.2541 23.3361 18.6237C22.6641 17.9951 21.7614 17.483 20.7953 17.0793C18.8651 16.2728 16.5609 15.85 15 15.85C13.4317 15.85 11.1275 16.2727 9.19894 17.0793C8.23363 17.4831 7.33228 17.9953 6.66146 18.624C5.98853 19.2546 5.51401 20.0366 5.50006 20.9625ZM0.5 15C0.5 6.99614 6.99614 0.5 15 0.5C23.0039 0.5 29.5 6.99614 29.5 15C29.5 23.0039 23.0039 29.5 15 29.5C6.99614 29.5 0.5 23.0039 0.5 15ZM20 9C20 6.23386 17.7661 4 15 4C12.2339 4 10 6.23386 10 9C10 11.7661 12.2339 14 15 14C17.7661 14 20 11.7661 20 9Z" fill="black" stroke="black"/>
</svg>
